<?xml version="1.0" encoding="UTF-8"?>
<svg version="1.1" xmlns="http://www.w3.org/2000/svg" width="500" height="500">
<path d="M0 0 C0.495 0.99 0.495 0.99 1 2 C17.17 2 33.34 2 50 2 C51.55977064 5.11954128 51.12104126 8.42959384 51.09765625 11.8515625 C51.09553383 13.01261002 51.09553383 13.01261002 51.09336853 14.19711304 C51.08776403 16.67311442 51.07521083 19.14902588 51.0625 21.625 C51.05748558 23.30208203 51.05292257 24.97916547 51.04882812 26.65625 C51.03779315 30.77086806 51.02052554 34.88541878 51 39 C55.75938169 37.41353944 58.32660121 33.82879851 61.4375 30 C63.34236446 27.76991478 64.95183772 26.11947946 67.1875 24.3125 C70.12754755 22.12328275 70.12754755 22.12328275 72 19 C72.66 19 73.32 19 74 19 C74 18.34 74 17.68 74 17 C75.375 15.375 75.375 15.375 77 14 C77.66 14 78.32 14 79 14 C79 13.34 79 12.68 79 12 C80.65002828 10.64613064 82.3174387 9.31321858 84 8 C84.33 7.34 84.66 6.68 85 6 C85.66 6 86.32 6 87 6 C87 5.34 87 4.68 87 4 C93.81921438 0.09246066 100.5890161 0.70719069 108.24609375 0.92578125 C109.62611733 0.9538538 111.00616974 0.98053994 112.38624573 1.00590515 C115.99840272 1.07598624 119.60986162 1.16475975 123.22149658 1.25756836 C126.91500413 1.34912527 130.60886472 1.42281079 134.30273438 1.49804688 C141.53561646 1.64797683 148.76785423 1.81767619 156 2 C157.62630024 5.25260047 157.14172565 8.82925829 157.1328125 12.40234375 C157.13376923 13.23584854 157.13472595 14.06935333 157.13571167 14.92811584 C157.13639275 16.69255651 157.13454348 18.45699968 157.13037109 20.22143555 C157.12502853 22.92307166 157.13031503 25.624541 157.13671875 28.32617188 C157.13605782 30.03906287 157.13477636 31.75195376 157.1328125 33.46484375 C157.13483673 34.2742894 157.13686096 35.08373505 157.13894653 35.91770935 C157.12522172 39.20116306 157.04563654 41.86309037 156 45 C121.02 45 86.04 45 50 45 C50.33 61.83 50.66 78.66 51 96 C50.67 96.66 50.34 97.32 50 98 C50.66 98 51.32 98 52 98 C52.33 98.33 52.66 98.66 53 99 C53.66 98.34 54.32 97.68 55 97 C55.721875 96.46375 56.44375 95.9275 57.1875 95.375 C60.3375179 92.71498489 62.83521382 89.78559385 65.44921875 86.609375 C65.96097656 86.07828125 66.47273437 85.5471875 67 85 C67.66 85 68.32 85 69 85 C69 84.34 69 83.68 69 83 C70.3203125 81.73828125 70.3203125 81.73828125 72.125 80.3125 C74.73459004 78.16064047 76.97135911 75.98292451 79.125 73.375 C81.50317628 70.4971537 84.02325227 68.27172853 87 66 C87.86483002 64.96513458 87.86483002 64.96513458 88.74713135 63.90936279 C91.76768313 61.34936926 93.49917457 61.54649243 97.42089844 61.63769531 C98.72194519 61.65801819 100.02299194 61.67834106 101.36346436 61.69927979 C102.77878103 61.7417934 104.19408439 61.78475224 105.609375 61.828125 C107.06093868 61.85803498 108.51254041 61.88614735 109.96417236 61.91253662 C113.77874744 61.98670581 117.59231626 62.08525458 121.40618896 62.18890381 C125.30042694 62.29041502 129.19512237 62.36884293 133.08984375 62.44921875 C140.72719715 62.61023321 148.36363478 62.79700777 156 63 C157.59142848 66.18285696 157.00008284 69.5870442 156.87890625 73.0703125 C156.85529526 73.86654022 156.83168427 74.66276794 156.80735779 75.48312378 C156.73067789 78.03059529 156.64667239 80.5777661 156.5625 83.125 C156.50928363 84.85024562 156.4565432 86.57550598 156.40429688 88.30078125 C156.27505693 92.53404522 156.13924581 96.76705382 156 101 C156.66 101 157.32 101 158 101 C157.34 102.65 156.68 104.3 156 106 C154.71404938 106.00808685 153.42809875 106.01617371 152.10317993 106.02450562 C140.00704147 106.10186099 127.91101696 106.18957308 115.81502724 106.28752708 C109.5957832 106.33755523 103.3765567 106.38388456 97.15722656 106.421875 C91.15956232 106.45864559 85.16204249 106.5049828 79.16450119 106.55806351 C76.87190652 106.57665132 74.57928084 106.5917429 72.28664017 106.60334396 C69.08498472 106.62013152 65.8836632 106.64914807 62.68212891 106.68115234 C61.24822563 106.68439262 61.24822563 106.68439262 59.78535461 106.68769836 C58.91594742 106.69886185 58.04654022 106.71002533 57.15078735 106.7215271 C56.0142166 106.72982324 56.0142166 106.72982324 54.85468483 106.73828697 C52.75396189 106.84512486 52.75396189 106.84512486 51 109 C50.66706256 111.95441801 50.66706256 111.95441801 50.68115234 115.46923828 C50.67110672 116.13277313 50.6610611 116.79630798 50.65071106 117.47994995 C50.61978012 119.67672852 50.60281688 121.87338469 50.5859375 124.0703125 C50.56723377 125.59204163 50.54766096 127.11376031 50.5272522 128.63546753 C50.47584076 132.64343105 50.43626351 136.65142823 50.39910889 140.6595459 C50.35912552 144.74837634 50.30800741 148.83706568 50.2578125 152.92578125 C50.16094661 160.95042459 50.07657621 168.97513753 50 177 C44.03686834 177.02464574 38.07376605 177.042834 32.1105957 177.05493164 C30.08031702 177.05997278 28.05004198 177.06680557 26.01977539 177.07543945 C23.10822653 177.08751467 20.1967255 177.09323034 17.28515625 177.09765625 C15.91485008 177.10539818 15.91485008 177.10539818 14.51686096 177.11329651 C12.34424573 177.11349168 10.17172704 177.06211805 8 177 C7 176 7 176 6.87695217 173.83107662 C6.87787396 172.86595937 6.87879576 171.90084211 6.87974548 170.90647888 C6.87768349 169.25103561 6.87768349 169.25103561 6.87557983 167.56214905 C6.88097275 165.73012184 6.88097275 165.73012184 6.88647461 163.86108398 C6.88632858 162.58322021 6.88618256 161.30535645 6.8860321 159.98876953 C6.88574415 156.47446409 6.8916406 152.9601925 6.89860606 149.44589496 C6.90483988 145.77700644 6.90544342 142.10811723 6.90663147 138.43922424 C6.9097447 131.48709565 6.91795798 124.5349827 6.92798096 117.58286101 C6.93914234 109.6700522 6.94465261 101.75724266 6.94967639 93.84442794 C6.9601406 77.56294135 6.97848598 61.28147631 7 45 C-8.51 45 -24.02 45 -40 45 C-40 88.56 -40 132.12 -40 177 C-80 178 -80 178 -84 176 C-83.67 175.01 -83.34 174.02 -83 173 C-82.94425302 170.10437813 -82.94709676 167.23515003 -82.99755859 164.34106445 C-83.02056192 162.50686268 -83.04345508 160.67265953 -83.06625366 158.8384552 C-83.08010479 157.8652363 -83.09395592 156.8920174 -83.10822678 155.88930702 C-83.17672764 150.73432914 -83.21268768 145.57908348 -83.25390625 140.42382812 C-83.30783069 133.86396096 -83.37149323 127.30468052 -83.47314453 120.74536133 C-83.55444009 115.44451982 -83.6012416 110.1443456 -83.62520218 104.84294701 C-83.64060801 102.82588409 -83.66858401 100.80887538 -83.70954514 98.79216957 C-84.06004188 81.01377479 -84.06004188 81.01377479 -79.88769531 76.13427734 C-78.62420055 75.05055444 -77.3281218 74.00347738 -76 73 C-74.85866442 71.85156447 -73.73260304 70.68774114 -72.62255859 69.5090332 C-71.46708268 68.35371205 -70.30896585 67.2010271 -69.1484375 66.05078125 C-68.5265152 65.4302739 -67.9045929 64.80976654 -67.26382446 64.17045593 C-65.30325167 62.21540913 -63.33921435 60.26388742 -61.375 58.3125 C-60.05184907 56.99437574 -58.72893059 55.6760181 -57.40625 54.35742188 C-54.97848318 51.93776427 -52.54939252 49.5194537 -50.11865234 47.1027832 C-47.40756466 44.40670187 -44.70245803 41.70473603 -42 39 C-40.71985664 37.71975924 -39.43965907 36.4395727 -38.15942383 35.15942383 C-37.4455098 34.4455098 -36.73159576 33.73159576 -35.99604797 32.99604797 C-25.33069865 22.33069865 -14.66534932 11.66534932 -4 1 C-1.875 1.375 -1.875 1.375 0 2 C0 1.34 0 0.68 0 0 Z M50 40 C51 42 51 42 51 42 Z " fill="#262626" transform="translate(215,139)"/>
<path d="M0 0 C0.33 0.66 0.66 1.32 1 2 C17.17 2 33.34 2 50 2 C51.55977064 5.11954128 51.12104126 8.42959384 51.09765625 11.8515625 C51.0962413 12.62559418 51.09482635 13.39962585 51.09336853 14.19711304 C51.08776403 16.67311442 51.07521083 19.14902588 51.0625 21.625 C51.05748558 23.30208203 51.05292257 24.97916547 51.04882812 26.65625 C51.03779315 30.77086806 51.02052554 34.88541878 51 39 C55.75938169 37.41353944 58.32660121 33.82879851 61.4375 30 C63.34236446 27.76991478 64.95183772 26.11947946 67.1875 24.3125 C70.12754755 22.12328275 70.12754755 22.12328275 72 19 C72.66 19 73.32 19 74 19 C74 18.34 74 17.68 74 17 C75.375 15.375 75.375 15.375 77 14 C77.66 14 78.32 14 79 14 C79 13.34 79 12.68 79 12 C80.65002828 10.64613064 82.3174387 9.31321858 84 8 C84.33 7.34 84.66 6.68 85 6 C85.66 6 86.32 6 87 6 C87 5.34 87 4.68 87 4 C93.81921438 0.09246066 100.5890161 0.70719069 108.24609375 0.92578125 C109.62611733 0.9538538 111.00616974 0.98053994 112.38624573 1.00590515 C115.99840272 1.07598624 119.60986162 1.16475975 123.22149658 1.25756836 C126.91500413 1.34912527 130.60886472 1.42281079 134.30273438 1.49804688 C141.53561646 1.64797683 148.76785423 1.81767619 156 2 C157.62630024 5.25260047 157.14172565 8.82925829 157.1328125 12.40234375 C157.13376923 13.23584854 157.13472595 14.06935333 157.13571167 14.92811584 C157.13639275 16.69255651 157.13454348 18.45699968 157.13037109 20.22143555 C157.12502853 22.92307166 157.13031503 25.624541 157.13671875 28.32617188 C157.13605782 30.03906287 157.13477636 31.75195376 157.1328125 33.46484375 C157.13483673 34.2742894 157.13686096 35.08373505 157.13894653 35.91770935 C157.12522172 39.20116306 157.04563654 41.86309037 156 45 C121.02 45 86.04 45 50 45 C50.33 61.83 50.66 78.66 51 96 C50.67 96.66 50.34 97.32 50 98 C50.66 98 51.32 98 52 98 C52.33 98.33 52.66 98.66 53 99 C53.66 98.34 54.32 97.68 55 97 C55.721875 96.46375 56.44375 95.9275 57.1875 95.375 C60.3375179 92.71498489 62.83521382 89.78559385 65.44921875 86.609375 C65.96097656 86.07828125 66.47273438 85.5471875 67 85 C67.66 85 68.32 85 69 85 C69 84.34 69 83.68 69 83 C70.3203125 81.73828125 70.3203125 81.73828125 72.125 80.3125 C74.73459004 78.16064047 76.97135911 75.98292451 79.125 73.375 C81.50317628 70.4971537 84.02325227 68.27172853 87 66 C87.86483002 64.96513458 87.86483002 64.96513458 88.74713135 63.90936279 C91.76768313 61.34936926 93.49917457 61.54649243 97.42089844 61.63769531 C98.72194519 61.65801819 100.02299194 61.67834106 101.36346436 61.69927979 C102.77878103 61.7417934 104.19408439 61.78475224 105.609375 61.828125 C107.06093868 61.85803498 108.51254041 61.88614735 109.96417236 61.91253662 C113.77874744 61.98670581 117.59231626 62.08525458 121.40618896 62.18890381 C125.30042694 62.29041502 129.19512237 62.36884293 133.08984375 62.44921875 C140.72719715 62.61023321 148.36363478 62.79700777 156 63 C157.59142848 66.18285696 157.00008284 69.5870442 156.87890625 73.0703125 C156.85529526 73.86654022 156.83168427 74.66276794 156.80735779 75.48312378 C156.73067789 78.03059529 156.64667239 80.5777661 156.5625 83.125 C156.50928363 84.85024562 156.4565432 86.57550598 156.40429688 88.30078125 C156.27505693 92.53404522 156.13924581 96.76705382 156 101 C156.66 101 157.32 101 158 101 C157.34 102.65 156.68 104.3 156 106 C154.71404938 106.00808685 153.42809875 106.01617371 152.10317993 106.02450562 C140.00704147 106.10186099 127.91101696 106.18957308 115.81502724 106.28752708 C109.5957832 106.33755523 103.3765567 106.38388456 97.15722656 106.421875 C91.15956232 106.45864559 85.16204249 106.5049828 79.16450119 106.55806351 C76.87190652 106.57665132 74.57928084 106.5917429 72.28664017 106.60334396 C69.08498472 106.62013152 65.8836632 106.64914807 62.68212891 106.68115234 C61.24822563 106.68439262 61.24822563 106.68439262 59.78535461 106.68769836 C58.91594742 106.69886185 58.04654022 106.71002533 57.15078735 106.7215271 C56.0142166 106.72982324 56.0142166 106.72982324 54.85468483 106.73828697 C52.75396189 106.84512486 52.75396189 106.84512486 51 109 C50.66706256 111.95441801 50.66706256 111.95441801 50.68115234 115.46923828 C50.66608391 116.46454056 50.66608391 116.46454056 50.65071106 117.47994995 C50.61978012 119.67672852 50.60281688 121.87338469 50.5859375 124.0703125 C50.56723377 125.59204163 50.54766096 127.11376031 50.5272522 128.63546753 C50.47584076 132.64343105 50.43626351 136.65142823 50.39910889 140.6595459 C50.35209748 145.46708699 50.29046124 150.27445991 50.23126221 155.0818634 C50.1429401 162.38784139 50.07325492 169.69378536 50 177 C36.14 177 22.28 177 8 177 C8 176.67 8 176.34 8 176 C21.53 176 35.06 176 49 176 C49 118.91 49 61.82 49 3 C21.775 3.495 21.775 3.495 -6 4 C-5.34 3.01 -4.68 2.02 -4 1 C-2.68 1.33 -1.36 1.66 0 2 C0 1.34 0 0.68 0 0 Z M50 40 C51 42 51 42 51 42 Z " fill="#232323" transform="translate(215,139)"/>
<path d="M0 0 C1.26085419 0.02024734 2.52170837 0.04049469 3.82077026 0.06135559 C5.18146674 0.09875654 6.54215386 0.13649943 7.90283203 0.17456055 C9.30670575 0.20262336 10.71060758 0.22931058 12.11453247 0.25468445 C15.79409676 0.32485939 19.47298279 0.41361934 23.15203857 0.50634766 C26.91248766 0.59780568 30.67328029 0.67155494 34.43408203 0.74682617 C41.80171748 0.89688239 49.16872622 1.06658793 56.53564453 1.2487793 C58.1662141 4.50991843 57.67735976 8.10357246 57.66845703 11.6862793 C57.66941376 12.52215576 57.67037048 13.35803223 57.6713562 14.21923828 C57.67203721 15.98787511 57.67018844 17.75651444 57.66601562 19.52514648 C57.66066624 22.23776851 57.66596328 24.95022495 57.67236328 27.6628418 C57.67170249 29.378988 57.67042129 31.09513409 57.66845703 32.8112793 C57.67048126 33.62588623 57.67250549 34.44049316 57.67459106 35.27978516 C57.65060417 41.01886002 57.65060417 41.01886002 56.53564453 43.2487793 C22.21564453 43.2487793 -12.10435547 43.2487793 -47.46435547 43.2487793 C-46.80435547 42.2587793 -46.14435547 41.2687793 -45.46435547 40.2487793 C-44.80435547 40.2487793 -44.14435547 40.2487793 -43.46435547 40.2487793 C-43.17560547 39.6300293 -42.88685547 39.0112793 -42.58935547 38.3737793 C-41.46435547 36.2487793 -41.46435547 36.2487793 -39.46435547 34.2487793 C-39.07248047 33.1762793 -38.68060547 32.1037793 -38.27685547 30.9987793 C-36.71456183 27.13331051 -34.35109661 25.10830585 -31.08544922 22.6081543 C-29.19948549 21.15604303 -29.19948549 21.15604303 -27.46435547 18.2487793 C-26.80435547 18.2487793 -26.14435547 18.2487793 -25.46435547 18.2487793 C-25.46435547 17.5887793 -25.46435547 16.9287793 -25.46435547 16.2487793 C-24.08935547 14.6237793 -24.08935547 14.6237793 -22.46435547 13.2487793 C-21.80435547 13.2487793 -21.14435547 13.2487793 -20.46435547 13.2487793 C-20.46435547 12.5887793 -20.46435547 11.9287793 -20.46435547 11.2487793 C-18.81432719 9.89490994 -17.14691677 8.56199787 -15.46435547 7.2487793 C-15.13435547 6.5887793 -14.80435547 5.9287793 -14.46435547 5.2487793 C-13.80435547 5.2487793 -13.14435547 5.2487793 -12.46435547 5.2487793 C-12.46435547 4.5887793 -12.46435547 3.9287793 -12.46435547 3.2487793 C-8.08184562 0.74273997 -5.0342262 -0.11119777 0 0 Z " fill="#222222" transform="translate(314.46435546875,139.751220703125)"/>
<path d="M0 0 C0.33 0.66 0.66 1.32 1 2 C17.17 2 33.34 2 50 2 C51.55977064 5.11954128 51.12104126 8.42959384 51.09765625 11.8515625 C51.0962413 12.62559418 51.09482635 13.39962585 51.09336853 14.19711304 C51.08776403 16.67311442 51.07521083 19.14902588 51.0625 21.625 C51.05748558 23.30208203 51.05292257 24.97916547 51.04882812 26.65625 C51.03779315 30.77086806 51.02052554 34.88541878 51 39 C54.70344028 37.76551991 56.30250982 35.76665659 59 33 C59.66 32.67 60.32 32.34 61 32 C60.42429187 35.88602985 58.58424279 38.11172864 56 41 C55.01 41.66 54.02 42.32 53 43 C86.99 43.33 120.98 43.66 156 44 C156 44.33 156 44.66 156 45 C121.02 45 86.04 45 50 45 C50.33 61.83 50.66 78.66 51 96 C50.67 96.66 50.34 97.32 50 98 C50.66 98 51.32 98 52 98 C52.625 99.875 52.625 99.875 53 102 C52.34 102.66 51.68 103.32 51 104 C85.65 104.33 120.3 104.66 156 105 C156 105.33 156 105.66 156 106 C154.71404938 106.00808685 153.42809875 106.01617371 152.10317993 106.02450562 C140.00704147 106.10186099 127.91101696 106.18957308 115.81502724 106.28752708 C109.5957832 106.33755523 103.3765567 106.38388456 97.15722656 106.421875 C91.15956232 106.45864559 85.16204249 106.5049828 79.16450119 106.55806351 C76.87190652 106.57665132 74.57928084 106.5917429 72.28664017 106.60334396 C69.08498472 106.62013152 65.8836632 106.64914807 62.68212891 106.68115234 C61.24822563 106.68439262 61.24822563 106.68439262 59.78535461 106.68769836 C58.91594742 106.69886185 58.04654022 106.71002533 57.15078735 106.7215271 C56.0142166 106.72982324 56.0142166 106.72982324 54.85468483 106.73828697 C52.75396189 106.84512486 52.75396189 106.84512486 51 109 C50.66706256 111.95441801 50.66706256 111.95441801 50.68115234 115.46923828 C50.66608391 116.46454056 50.66608391 116.46454056 50.65071106 117.47994995 C50.61978012 119.67672852 50.60281688 121.87338469 50.5859375 124.0703125 C50.56723377 125.59204163 50.54766096 127.11376031 50.5272522 128.63546753 C50.47584076 132.64343105 50.43626351 136.65142823 50.39910889 140.6595459 C50.35209748 145.46708699 50.29046124 150.27445991 50.23126221 155.0818634 C50.1429401 162.38784139 50.07325492 169.69378536 50 177 C36.14 177 22.28 177 8 177 C8 176.67 8 176.34 8 176 C21.53 176 35.06 176 49 176 C49 118.91 49 61.82 49 3 C21.775 3.495 21.775 3.495 -6 4 C-5.34 3.01 -4.68 2.02 -4 1 C-2.68 1.33 -1.36 1.66 0 2 C0 1.34 0 0.68 0 0 Z M50 40 C51 42 51 42 51 42 Z " fill="#CCCCCC" transform="translate(215,139)"/>
<path d="M0 0 C1.26085419 0.02024734 2.52170837 0.04049469 3.82077026 0.06135559 C5.18146674 0.09875654 6.54215386 0.13649943 7.90283203 0.17456055 C9.30670575 0.20262336 10.71060758 0.22931058 12.11453247 0.25468445 C15.79409676 0.32485939 19.47298279 0.41361934 23.15203857 0.50634766 C26.91248766 0.59780568 30.67328029 0.67155494 34.43408203 0.74682617 C41.80171748 0.89688239 49.16872622 1.06658793 56.53564453 1.2487793 C56.53564453 1.5787793 56.53564453 1.9087793 56.53564453 2.2487793 C55.35293472 2.25091682 55.35293472 2.25091682 54.14633179 2.25309753 C46.70149836 2.27095591 39.25735485 2.31265224 31.81282616 2.38086987 C27.98581541 2.4151046 24.15920235 2.44024424 20.33203125 2.44433594 C16.6358141 2.44862666 12.94049348 2.47715127 9.24455643 2.52221107 C7.8372788 2.53516175 6.42989374 2.53950232 5.02256393 2.53493309 C-3.66691849 2.18727497 -3.66691849 2.18727497 -11.26831055 5.67773438 C-11.99300537 6.5261792 -12.7177002 7.37462402 -13.46435547 8.2487793 C-14.03283203 8.8572168 -14.60130859 9.4656543 -15.18701172 10.0925293 C-15.62916016 10.6390918 -16.07130859 11.1856543 -16.52685547 11.7487793 C-20.12546675 16.07087117 -23.84689353 19.99945423 -28.46435547 23.2487793 C-29.12435547 22.9187793 -29.78435547 22.5887793 -30.46435547 22.2487793 C-29.08935547 20.2487793 -29.08935547 20.2487793 -27.46435547 18.2487793 C-26.80435547 18.2487793 -26.14435547 18.2487793 -25.46435547 18.2487793 C-25.46435547 17.5887793 -25.46435547 16.9287793 -25.46435547 16.2487793 C-24.08935547 14.6237793 -24.08935547 14.6237793 -22.46435547 13.2487793 C-21.80435547 13.2487793 -21.14435547 13.2487793 -20.46435547 13.2487793 C-20.46435547 12.5887793 -20.46435547 11.9287793 -20.46435547 11.2487793 C-18.81432719 9.89490994 -17.14691677 8.56199787 -15.46435547 7.2487793 C-15.13435547 6.5887793 -14.80435547 5.9287793 -14.46435547 5.2487793 C-13.80435547 5.2487793 -13.14435547 5.2487793 -12.46435547 5.2487793 C-12.46435547 4.5887793 -12.46435547 3.9287793 -12.46435547 3.2487793 C-8.08184562 0.74273997 -5.0342262 -0.11119777 0 0 Z " fill="#C9C9C9" transform="translate(314.46435546875,139.751220703125)"/>
<path d="M0 0 C1.44869345 0.03179474 2.89743816 0.06132739 4.34622192 0.08869934 C8.14457123 0.16650455 11.94144634 0.27487688 15.73883057 0.38977051 C19.61973396 0.50173039 23.50124876 0.5845771 27.3828125 0.66992188 C34.98787172 0.84140568 42.59160889 1.04520684 50.1953125 1.26953125 C50.1953125 1.59953125 50.1953125 1.92953125 50.1953125 2.26953125 C49.40017746 2.27539749 48.60504242 2.28126373 47.78581238 2.28730774 C40.29601654 2.34518777 32.80655517 2.41723683 25.31705761 2.50524616 C21.46651994 2.54999296 17.61608912 2.58923923 13.76538086 2.6159668 C10.04989685 2.64195732 6.3348231 2.6823286 2.61959267 2.73271751 C1.20146089 2.74941521 -0.21674189 2.76091142 -1.63495827 2.76714516 C-3.6197899 2.77675379 -5.60449332 2.80649409 -7.58911133 2.8371582 C-9.28454826 2.85381279 -9.28454826 2.85381279 -11.01423645 2.87080383 C-14.13367447 3.31654018 -14.85760138 3.90487066 -16.8046875 6.26953125 C-18.9921875 6.95703125 -18.9921875 6.95703125 -20.8046875 7.26953125 C-20.8046875 5.26953125 -20.8046875 5.26953125 -18.72998047 2.66137695 C-13.45051041 -1.52359226 -6.36159332 -0.22051716 0 0 Z " fill="#BEBEBE" transform="translate(320.8046875,200.73046875)"/>
<path d="M0 0 C0.99 0.33 1.98 0.66 3 1 C1.700625 2.0209375 1.700625 2.0209375 0.375 3.0625 C-2.62485331 5.55414287 -5.06874561 8.30645687 -7.55859375 11.296875 C-10.68511648 14.99108614 -14.04323036 18.21560655 -18 21 C-18.66 20.67 -19.32 20.34 -20 20 C-18.625 18 -18.625 18 -17 16 C-16.34 16 -15.68 16 -15 16 C-15 15.34 -15 14.68 -15 14 C-13.625 12.375 -13.625 12.375 -12 11 C-11.34 11 -10.68 11 -10 11 C-10 10.34 -10 9.68 -10 9 C-8.34997172 7.64613064 -6.6825613 6.31321858 -5 5 C-4.67 4.34 -4.34 3.68 -4 3 C-3.34 3 -2.68 3 -2 3 C-2 2.34 -2 1.68 -2 1 C-1.34 0.67 -0.68 0.34 0 0 Z " fill="#848484" transform="translate(304,142)"/>
<path d="M0 0 C0.33 0.99 0.66 1.98 1 3 C-1.65308425 6.63851555 -4.23172413 9.48781609 -8 12 C-8.66 11.67 -9.32 11.34 -10 11 C-8.85455923 7.56367769 -7.7288492 6.66528415 -5 4.375 C-4.278125 3.76398438 -3.55625 3.15296875 -2.8125 2.5234375 C-2.214375 2.02070313 -1.61625 1.51796875 -1 1 C-0.67 0.67 -0.34 0.34 0 0 Z " fill="#6D6D6D" transform="translate(275,171)"/>
<path d="M0 0 C0.66 0 1.32 0 2 0 C1.9375 2.3125 1.9375 2.3125 1 5 C-2.5625 6.8125 -2.5625 6.8125 -6 8 C-6 6 -6 6 -3.5625 3.4375 C-2.716875 2.633125 -1.87125 1.82875 -1 1 C-0.67 0.67 -0.34 0.34 0 0 Z " fill="#9A9A9A" transform="translate(282,224)"/>
<path d="M0 0 C0.33 0.99 0.66 1.98 1 3 C-1.52788007 5.79872437 -3.20411134 7.45773019 -7 8 C-7 7.34 -7 6.68 -7 6 C-5.46875 4.4921875 -5.46875 4.4921875 -3.5 2.875 C-2.8503125 2.33617187 -2.200625 1.79734375 -1.53125 1.2421875 C-1.0259375 0.83226562 -0.520625 0.42234375 0 0 Z " fill="#969696" transform="translate(299,208)"/>
<path d="M0 0 C0.33 0.99 0.66 1.98 1 3 C-1.97 5.475 -1.97 5.475 -5 8 C-5.66 7.67 -6.32 7.34 -7 7 C-4.66666667 4.66666667 -2.33333333 2.33333333 0 0 Z " fill="#838383" transform="translate(283,163)"/>
<path d="M0 0 C0.33 0.66 0.66 1.32 1 2 C0.34 2 -0.32 2 -1 2 C-1.061875 2.61875 -1.12375 3.2375 -1.1875 3.875 C-2 6 -2 6 -4.5625 7.25 C-5.366875 7.4975 -6.17125 7.745 -7 8 C-7 6 -7 6 -5 4 C-3.34106818 2.65705519 -1.67523395 1.32255312 0 0 Z " fill="#B7B7B7" transform="translate(275,232)"/>
<path d="M0 0 C0.33 0.66 0.66 1.32 1 2 C0.34 2 -0.32 2 -1 2 C-1.061875 2.61875 -1.12375 3.2375 -1.1875 3.875 C-2 6 -2 6 -4.5625 7.25 C-5.366875 7.4975 -6.17125 7.745 -7 8 C-7 7.34 -7 6.68 -7 6 C-5.46875 4.4921875 -5.46875 4.4921875 -3.5 2.875 C-2.8503125 2.33617187 -2.200625 1.79734375 -1.53125 1.2421875 C-1.0259375 0.83226562 -0.520625 0.42234375 0 0 Z " fill="#ACACAC" transform="translate(291,216)"/>
<path d="M0 0 C1 4 1 4 1 4 Z " fill="#FFFFFF" transform="translate(266,227)"/>
<path d="M0 0 C0.66 0.66 1.32 1.32 2 2 C1.01 2.495 1.01 2.495 0 3 C0 2.01 0 1.02 0 0 Z " fill="#FFFFFF" transform="translate(372,176)"/>
<path d="M0 0 C3 1 3 1 3 1 Z " fill="#FFFFFF" transform="translate(369,139)"/>
<path d="" fill="#FFFFFF" transform="translate(0,0)"/>
<path d="" fill="#FFFFFF" transform="translate(0,0)"/>
<path d="" fill="#FFFFFF" transform="translate(0,0)"/>
<path d="" fill="#FFFFFF" transform="translate(0,0)"/>
<path d="" fill="#FFFFFF" transform="translate(0,0)"/>
<path d="" fill="#FFFFFF" transform="translate(0,0)"/>
<path d="" fill="#FFFFFF" transform="translate(0,0)"/>
<path d="" fill="#FFFFFF" transform="translate(0,0)"/>
<path d="" fill="#FFFFFF" transform="translate(0,0)"/>
<path d="" fill="#FFFFFF" transform="translate(0,0)"/>
<path d="" fill="#FFFFFF" transform="translate(0,0)"/>
<path d="" fill="#FFFFFF" transform="translate(0,0)"/>
<path d="" fill="#FFFFFF" transform="translate(0,0)"/>
<path d="" fill="#FFFFFF" transform="translate(0,0)"/>
<path d="" fill="#FFFFFF" transform="translate(0,0)"/>
<path d="" fill="#FFFFFF" transform="translate(0,0)"/>
<path d="" fill="#FFFFFF" transform="translate(0,0)"/>
<path d="" fill="#FFFFFF" transform="translate(0,0)"/>
<path d="" fill="#FFFFFF" transform="translate(0,0)"/>
<path d="" fill="#FFFFFF" transform="translate(0,0)"/>
</svg>
